<?xml version="1.0" encoding="UTF-8"?><svg xmlns="http://www.w3.org/2000/svg" xmlns:xlink="http://www.w3.org/1999/xlink" width="768" zoomAndPan="magnify" viewBox="0 0 768 767.999994" height="767.999994" preserveAspectRatio="xMidYMid meet" version="1.0"><path fill="rgb(0%, 0%, 0%)" d="M 629.332031 552.421875 L 556.046875 466.980469 L 556.046875 304.320312 C 556.007812 301.785156 555.914062 299.253906 555.769531 296.726562 C 555.621094 294.195312 555.417969 291.671875 555.160156 289.148438 C 554.902344 286.628906 554.59375 284.117188 554.226562 281.609375 C 553.859375 279.101562 553.4375 276.605469 552.964844 274.113281 C 552.488281 271.625 551.960938 269.148438 551.378906 266.683594 C 550.796875 264.214844 550.160156 261.765625 549.472656 259.324219 C 548.78125 256.886719 548.039062 254.464844 547.246094 252.058594 C 546.453125 249.652344 545.605469 247.265625 544.707031 244.894531 C 543.808594 242.527344 542.863281 240.175781 541.863281 237.847656 C 540.863281 235.519531 539.8125 233.214844 538.710938 230.933594 C 537.613281 228.648438 536.460938 226.390625 535.265625 224.160156 C 534.066406 221.925781 532.820312 219.71875 531.527344 217.539062 C 530.234375 215.363281 528.890625 213.210938 527.503906 211.089844 C 526.117188 208.96875 524.683594 206.878906 523.207031 204.820312 C 521.730469 202.761719 520.207031 200.738281 518.640625 198.746094 C 517.074219 196.753906 515.464844 194.792969 513.816406 192.871094 C 512.164062 190.949219 510.472656 189.0625 508.738281 187.214844 C 507.007812 185.363281 505.234375 183.554688 503.421875 181.78125 C 501.609375 180.007812 499.761719 178.273438 497.875 176.582031 C 495.988281 174.890625 494.066406 173.238281 492.105469 171.628906 C 490.148438 170.019531 488.15625 168.457031 486.128906 166.933594 C 484.101562 165.410156 482.042969 163.933594 479.953125 162.5 C 477.863281 161.066406 475.742188 159.679688 473.589844 158.335938 C 471.441406 156.996094 469.261719 155.703125 467.054688 154.453125 C 464.847656 153.207031 462.613281 152.011719 460.355469 150.859375 C 458.09375 149.710938 455.8125 148.609375 453.503906 147.558594 C 451.199219 146.507812 448.867188 145.507812 446.519531 144.558594 C 444.167969 143.605469 441.796875 142.707031 439.40625 141.863281 C 437.019531 141.015625 434.613281 140.21875 432.1875 139.476562 C 429.761719 138.734375 427.324219 138.042969 424.871094 137.40625 C 422.417969 136.769531 419.949219 136.1875 417.46875 135.65625 C 414.992188 135.125 412.5 134.652344 410 134.230469 L 410 105.304688 C 410 104.4375 409.957031 103.570312 409.875 102.703125 C 409.789062 101.839844 409.660156 100.980469 409.492188 100.128906 C 409.320312 99.277344 409.109375 98.433594 408.859375 97.601562 C 408.605469 96.769531 408.3125 95.953125 407.980469 95.152344 C 407.648438 94.347656 407.277344 93.5625 406.867188 92.796875 C 406.457031 92.03125 406.007812 91.285156 405.527344 90.5625 C 405.042969 89.839844 404.527344 89.144531 403.972656 88.472656 C 403.421875 87.800781 402.839844 87.15625 402.222656 86.542969 C 401.609375 85.925781 400.964844 85.34375 400.292969 84.792969 C 399.621094 84.242188 398.921875 83.726562 398.199219 83.242188 C 397.476562 82.757812 396.730469 82.3125 395.964844 81.902344 C 395.199219 81.492188 394.414062 81.121094 393.609375 80.789062 C 392.804688 80.457031 391.988281 80.164062 391.15625 79.914062 C 390.324219 79.660156 389.480469 79.449219 388.628906 79.28125 C 387.773438 79.109375 386.917969 78.984375 386.050781 78.898438 C 385.183594 78.8125 384.316406 78.769531 383.449219 78.769531 C 382.578125 78.769531 381.710938 78.8125 380.84375 78.898438 C 379.980469 78.984375 379.121094 79.109375 378.269531 79.28125 C 377.414062 79.449219 376.570312 79.660156 375.738281 79.914062 C 374.90625 80.164062 374.089844 80.457031 373.285156 80.789062 C 372.484375 81.121094 371.699219 81.492188 370.929688 81.902344 C 370.164062 82.3125 369.417969 82.757812 368.695312 83.242188 C 367.972656 83.726562 367.273438 84.242188 366.601562 84.792969 C 365.929688 85.34375 365.285156 85.925781 364.671875 86.542969 C 364.058594 87.15625 363.472656 87.800781 362.921875 88.472656 C 362.371094 89.144531 361.851562 89.839844 361.371094 90.5625 C 360.886719 91.285156 360.441406 92.03125 360.03125 92.796875 C 359.621094 93.5625 359.25 94.347656 358.914062 95.152344 C 358.582031 95.953125 358.289062 96.769531 358.039062 97.601562 C 357.785156 98.433594 357.574219 99.277344 357.40625 100.128906 C 357.234375 100.980469 357.109375 101.839844 357.023438 102.703125 C 356.9375 103.570312 356.894531 104.4375 356.894531 105.304688 L 356.894531 134.230469 C 354.394531 134.652344 351.90625 135.125 349.425781 135.65625 C 346.945312 136.1875 344.480469 136.769531 342.027344 137.40625 C 339.570312 138.042969 337.132812 138.734375 334.707031 139.476562 C 332.285156 140.21875 329.878906 141.015625 327.488281 141.863281 C 325.097656 142.707031 322.726562 143.605469 320.378906 144.558594 C 318.027344 145.507812 315.699219 146.507812 313.390625 147.558594 C 311.085938 148.609375 308.800781 149.710938 306.542969 150.859375 C 304.28125 152.011719 302.050781 153.207031 299.84375 154.453125 C 297.636719 155.703125 295.457031 156.996094 293.304688 158.335938 C 291.152344 159.679688 289.035156 161.066406 286.941406 162.5 C 284.851562 163.933594 282.792969 165.410156 280.765625 166.933594 C 278.738281 168.457031 276.746094 170.019531 274.789062 171.628906 C 272.832031 173.238281 270.90625 174.890625 269.019531 176.582031 C 267.132812 178.273438 265.285156 180.007812 263.472656 181.78125 C 261.660156 183.554688 259.890625 185.363281 258.15625 187.214844 C 256.421875 189.0625 254.730469 190.949219 253.082031 192.871094 C 251.429688 194.792969 249.820312 196.753906 248.253906 198.746094 C 246.6875 200.738281 245.167969 202.761719 243.6875 204.820312 C 242.210938 206.878906 240.777344 208.96875 239.390625 211.089844 C 238.003906 213.210938 236.664062 215.363281 235.371094 217.539062 C 234.074219 219.71875 232.828125 221.925781 231.632812 224.160156 C 230.433594 226.390625 229.285156 228.648438 228.183594 230.933594 C 227.085938 233.214844 226.035156 235.519531 225.035156 237.847656 C 224.035156 240.175781 223.085938 242.527344 222.1875 244.894531 C 221.289062 247.265625 220.445312 249.652344 219.648438 252.058594 C 218.855469 254.464844 218.113281 256.886719 217.425781 259.324219 C 216.734375 261.765625 216.101562 264.214844 215.519531 266.683594 C 214.933594 269.148438 214.40625 271.625 213.933594 274.113281 C 213.457031 276.605469 213.035156 279.101562 212.671875 281.609375 C 212.304688 284.117188 211.992188 286.628906 211.734375 289.148438 C 211.476562 291.671875 211.273438 294.195312 211.128906 296.726562 C 210.980469 299.253906 210.886719 301.785156 210.851562 304.320312 L 210.851562 466.980469 L 137.5625 552.421875 C 136.742188 553.382812 135.992188 554.394531 135.316406 555.460938 C 134.640625 556.527344 134.042969 557.632812 133.527344 558.785156 C 133.007812 559.933594 132.574219 561.117188 132.226562 562.328125 C 131.875 563.542969 131.613281 564.773438 131.441406 566.023438 C 131.265625 567.273438 131.183594 568.527344 131.1875 569.789062 C 131.195312 571.050781 131.289062 572.304688 131.472656 573.554688 C 131.660156 574.800781 131.929688 576.03125 132.289062 577.238281 C 132.652344 578.449219 133.09375 579.625 133.625 580.773438 C 134.152344 581.917969 134.757812 583.019531 135.445312 584.082031 C 136.128906 585.140625 136.886719 586.144531 137.714844 587.097656 C 138.542969 588.046875 139.4375 588.9375 140.394531 589.761719 C 141.347656 590.585938 142.359375 591.335938 143.421875 592.015625 C 144.484375 592.699219 145.589844 593.300781 146.738281 593.820312 C 147.890625 594.34375 149.070312 594.785156 150.28125 595.136719 C 151.492188 595.492188 152.722656 595.757812 153.972656 595.9375 C 155.222656 596.117188 156.480469 596.207031 157.742188 596.207031 L 267.144531 596.207031 C 267.925781 599.453125 268.839844 602.660156 269.886719 605.832031 C 270.933594 609 272.109375 612.125 273.414062 615.195312 C 274.71875 618.269531 276.148438 621.285156 277.703125 624.238281 C 279.257812 627.195312 280.933594 630.082031 282.726562 632.898438 C 284.519531 635.714844 286.421875 638.453125 288.441406 641.113281 C 290.460938 643.773438 292.585938 646.347656 294.820312 648.832031 C 297.050781 651.316406 299.382812 653.703125 301.808594 655.996094 C 304.238281 658.289062 306.757812 660.476562 309.371094 662.5625 C 311.980469 664.644531 314.671875 666.617188 317.445312 668.480469 C 320.21875 670.34375 323.0625 672.085938 325.980469 673.714844 C 328.898438 675.339844 331.875 676.84375 334.917969 678.226562 C 337.960938 679.609375 341.050781 680.859375 344.199219 681.988281 C 347.34375 683.113281 350.53125 684.109375 353.757812 684.96875 C 356.984375 685.832031 360.242188 686.5625 363.527344 687.15625 C 366.816406 687.75 370.125 688.207031 373.449219 688.527344 C 376.773438 688.851562 380.105469 689.035156 383.449219 689.078125 C 386.789062 689.035156 390.121094 688.851562 393.445312 688.527344 C 396.773438 688.207031 400.078125 687.75 403.367188 687.15625 C 406.652344 686.5625 409.910156 685.832031 413.140625 684.96875 C 416.367188 684.109375 419.554688 683.113281 422.699219 681.988281 C 425.84375 680.859375 428.9375 679.609375 431.976562 678.226562 C 435.019531 676.84375 438 675.339844 440.917969 673.714844 C 443.832031 672.085938 446.679688 670.34375 449.453125 668.480469 C 452.226562 666.617188 454.917969 664.644531 457.527344 662.5625 C 460.136719 660.476562 462.65625 658.289062 465.085938 655.996094 C 467.515625 653.703125 469.84375 651.316406 472.078125 648.832031 C 474.308594 646.347656 476.433594 643.773438 478.453125 641.113281 C 480.472656 638.453125 482.378906 635.714844 484.171875 632.898438 C 485.964844 630.082031 487.636719 627.195312 489.191406 624.238281 C 490.746094 621.285156 492.175781 618.269531 493.480469 615.195312 C 494.785156 612.125 495.960938 609 497.007812 605.832031 C 498.054688 602.660156 498.96875 599.453125 499.753906 596.207031 L 609.152344 596.207031 C 610.414062 596.207031 611.671875 596.117188 612.921875 595.9375 C 614.171875 595.757812 615.402344 595.492188 616.613281 595.136719 C 617.824219 594.785156 619.007812 594.34375 620.15625 593.824219 C 621.304688 593.300781 622.410156 592.699219 623.472656 592.019531 C 624.535156 591.335938 625.546875 590.585938 626.503906 589.761719 C 627.457031 588.9375 628.351562 588.050781 629.179688 587.097656 C 630.007812 586.144531 630.765625 585.140625 631.453125 584.082031 C 632.136719 583.019531 632.746094 581.917969 633.273438 580.773438 C 633.800781 579.625 634.246094 578.449219 634.605469 577.238281 C 634.964844 576.03125 635.238281 574.800781 635.421875 573.554688 C 635.605469 572.304688 635.703125 571.050781 635.707031 569.789062 C 635.714844 568.527344 635.628906 567.273438 635.457031 566.023438 C 635.28125 564.773438 635.019531 563.542969 634.671875 562.328125 C 634.320312 561.117188 633.886719 559.933594 633.371094 558.785156 C 632.851562 557.632812 632.253906 556.527344 631.578125 555.460938 C 630.902344 554.394531 630.152344 553.382812 629.332031 552.421875 Z M 383.449219 636.007812 C 380.273438 635.925781 377.117188 635.625 373.984375 635.101562 C 370.847656 634.578125 367.765625 633.839844 364.734375 632.886719 C 361.703125 631.933594 358.753906 630.773438 355.886719 629.40625 C 353.015625 628.042969 350.257812 626.484375 347.605469 624.734375 C 344.957031 622.984375 342.4375 621.054688 340.058594 618.953125 C 337.675781 616.851562 335.453125 614.597656 333.386719 612.183594 C 331.320312 609.769531 329.429688 607.226562 327.71875 604.550781 C 326.007812 601.875 324.492188 599.09375 323.171875 596.207031 L 443.722656 596.207031 C 442.402344 599.09375 440.886719 601.875 439.175781 604.550781 C 437.464844 607.226562 435.578125 609.769531 433.511719 612.183594 C 431.445312 614.597656 429.21875 616.851562 426.839844 618.953125 C 424.457031 621.054688 421.941406 622.984375 419.289062 624.734375 C 416.636719 626.484375 413.878906 628.042969 411.011719 629.40625 C 408.140625 630.773438 405.191406 631.933594 402.160156 632.886719 C 399.128906 633.839844 396.046875 634.578125 392.914062 635.101562 C 389.78125 635.625 386.625 635.925781 383.449219 636.007812 Z M 215.496094 543.136719 L 257.585938 494.046875 C 259.640625 491.644531 261.21875 488.960938 262.3125 485.992188 C 263.410156 483.027344 263.957031 479.960938 263.957031 476.796875 L 263.957031 304.320312 C 263.957031 302.363281 264.003906 300.414062 264.101562 298.460938 C 264.195312 296.507812 264.339844 294.558594 264.53125 292.617188 C 264.722656 290.671875 264.964844 288.730469 265.25 286.796875 C 265.539062 284.867188 265.871094 282.941406 266.253906 281.023438 C 266.632812 279.105469 267.0625 277.203125 267.539062 275.304688 C 268.011719 273.410156 268.535156 271.527344 269.101562 269.65625 C 269.671875 267.785156 270.285156 265.933594 270.941406 264.09375 C 271.601562 262.25 272.304688 260.429688 273.054688 258.625 C 273.800781 256.816406 274.59375 255.03125 275.429688 253.265625 C 276.265625 251.5 277.144531 249.753906 278.066406 248.03125 C 278.988281 246.308594 279.953125 244.605469 280.957031 242.929688 C 281.960938 241.253906 283.007812 239.605469 284.09375 237.980469 C 285.179688 236.355469 286.308594 234.757812 287.472656 233.1875 C 288.636719 231.617188 289.839844 230.078125 291.082031 228.566406 C 292.320312 227.058594 293.597656 225.578125 294.910156 224.128906 C 296.222656 222.679688 297.574219 221.265625 298.957031 219.886719 C 300.339844 218.503906 301.753906 217.15625 303.203125 215.84375 C 304.652344 214.53125 306.132812 213.253906 307.644531 212.015625 C 309.15625 210.777344 310.695312 209.574219 312.265625 208.410156 C 313.839844 207.246094 315.4375 206.121094 317.0625 205.035156 C 318.6875 203.949219 320.339844 202.902344 322.015625 201.898438 C 323.695312 200.894531 325.394531 199.933594 327.121094 199.011719 C 328.84375 198.089844 330.589844 197.210938 332.359375 196.375 C 334.125 195.539062 335.914062 194.75 337.722656 194 C 339.527344 193.253906 341.351562 192.550781 343.191406 191.890625 C 345.035156 191.234375 346.890625 190.621094 348.761719 190.050781 C 350.632812 189.484375 352.515625 188.964844 354.414062 188.488281 C 356.3125 188.015625 358.21875 187.585938 360.136719 187.207031 C 362.054688 186.824219 363.980469 186.488281 365.914062 186.203125 C 367.847656 185.917969 369.789062 185.675781 371.734375 185.484375 C 373.683594 185.292969 375.632812 185.152344 377.585938 185.054688 C 379.539062 184.957031 381.492188 184.910156 383.449219 184.910156 C 385.402344 184.910156 387.359375 184.957031 389.3125 185.054688 C 391.265625 185.152344 393.214844 185.292969 395.160156 185.484375 C 397.105469 185.675781 399.046875 185.917969 400.980469 186.203125 C 402.914062 186.488281 404.839844 186.824219 406.757812 187.207031 C 408.675781 187.585938 410.585938 188.015625 412.480469 188.488281 C 414.378906 188.964844 416.261719 189.484375 418.132812 190.050781 C 420.003906 190.621094 421.863281 191.234375 423.703125 191.890625 C 425.542969 192.550781 427.367188 193.253906 429.175781 194 C 430.980469 194.75 432.769531 195.539062 434.535156 196.375 C 436.304688 197.210938 438.050781 198.089844 439.777344 199.011719 C 441.5 199.933594 443.203125 200.894531 444.878906 201.898438 C 446.554688 202.902344 448.207031 203.949219 449.832031 205.035156 C 451.460938 206.121094 453.058594 207.246094 454.628906 208.410156 C 456.199219 209.574219 457.742188 210.777344 459.253906 212.015625 C 460.765625 213.253906 462.242188 214.53125 463.691406 215.84375 C 465.140625 217.15625 466.558594 218.503906 467.941406 219.886719 C 469.324219 221.265625 470.671875 222.679688 471.984375 224.128906 C 473.296875 225.578125 474.574219 227.058594 475.816406 228.566406 C 477.054688 230.078125 478.257812 231.617188 479.425781 233.1875 C 480.589844 234.757812 481.714844 236.355469 482.800781 237.980469 C 483.886719 239.605469 484.933594 241.253906 485.9375 242.929688 C 486.945312 244.605469 487.90625 246.308594 488.828125 248.03125 C 489.75 249.753906 490.628906 251.5 491.464844 253.265625 C 492.300781 255.03125 493.09375 256.816406 493.84375 258.625 C 494.589844 260.429688 495.296875 262.25 495.953125 264.09375 C 496.613281 265.933594 497.226562 267.785156 497.792969 269.65625 C 498.359375 271.527344 498.882812 273.410156 499.359375 275.304688 C 499.832031 277.203125 500.261719 279.105469 500.644531 281.023438 C 501.023438 282.941406 501.359375 284.867188 501.644531 286.796875 C 501.933594 288.730469 502.171875 290.671875 502.363281 292.617188 C 502.554688 294.558594 502.699219 296.507812 502.796875 298.460938 C 502.890625 300.414062 502.9375 302.363281 502.9375 304.320312 L 502.9375 476.796875 C 502.9375 479.960938 503.488281 483.023438 504.582031 485.992188 C 505.679688 488.957031 507.253906 491.644531 509.3125 494.046875 L 551.398438 543.136719 Z M 215.496094 543.136719 " fill-opacity="1" fill-rule="nonzero"/></svg>