<?xml version="1.0" encoding="UTF-8"?><svg xmlns="http://www.w3.org/2000/svg" xmlns:xlink="http://www.w3.org/1999/xlink" width="768" zoomAndPan="magnify" viewBox="0 0 768 767.999994" height="767.999994" preserveAspectRatio="xMidYMid meet" version="1.0"><defs><clipPath id="clip-0"><path d="M 76.800781 135 L 195 135 L 195 170 L 76.800781 170 Z M 76.800781 135 " clip-rule="nonzero"/></clipPath><clipPath id="clip-1"><path d="M 249 484 L 362 484 L 362 596.773438 L 249 596.773438 Z M 249 484 " clip-rule="nonzero"/></clipPath><clipPath id="clip-2"><path d="M 556 484 L 669 484 L 669 596.773438 L 556 596.773438 Z M 556 484 " clip-rule="nonzero"/></clipPath></defs><g clip-path="url(#clip-0)"><path fill="rgb(9.408569%, 8.628845%, 9.01947%)" d="M 194.96875 152.746094 C 194.96875 162.210938 189.054688 169.875 181.753906 169.875 L 89.984375 169.875 C 82.675781 169.875 76.761719 162.210938 76.761719 152.746094 C 76.761719 143.277344 82.675781 135.613281 89.984375 135.613281 L 181.753906 135.613281 C 189.054688 135.613281 194.96875 143.277344 194.96875 152.746094 " fill-opacity="1" fill-rule="nonzero"/></g><path fill="rgb(9.408569%, 8.628845%, 9.01947%)" d="M 612.613281 456.136719 C 612.613281 465.601562 606.695312 473.273438 599.386719 473.273438 L 295.304688 473.273438 C 287.996094 473.273438 282.078125 465.601562 282.078125 456.136719 C 282.078125 446.675781 287.996094 439.003906 295.304688 439.003906 L 599.386719 439.003906 C 606.695312 439.003906 612.613281 446.675781 612.613281 456.136719 " fill-opacity="1" fill-rule="nonzero"/><path fill="rgb(9.408569%, 8.628845%, 9.01947%)" d="M 689.195312 252.054688 C 689.195312 261.511719 683.277344 269.191406 675.976562 269.191406 L 278.882812 269.191406 C 271.582031 269.191406 265.664062 261.511719 265.664062 252.054688 C 265.664062 242.59375 271.582031 234.921875 278.882812 234.921875 L 675.976562 234.921875 C 683.277344 234.921875 689.195312 242.59375 689.195312 252.054688 " fill-opacity="1" fill-rule="nonzero"/><path fill="rgb(9.408569%, 8.628845%, 9.01947%)" d="M 297.574219 471.675781 C 290.953125 475.652344 283.09375 471.941406 280.015625 463.359375 L 171.125 159.976562 C 168.046875 151.394531 170.917969 141.199219 177.535156 137.214844 C 184.15625 133.222656 192.027344 136.941406 195.105469 145.523438 L 303.988281 448.914062 C 307.070312 457.484375 304.195312 467.683594 297.574219 471.675781 " fill-opacity="1" fill-rule="nonzero"/><path fill="rgb(9.408569%, 8.628845%, 9.01947%)" d="M 596.636719 471.675781 C 603.253906 475.652344 611.117188 471.941406 614.195312 463.359375 L 687.960938 259.285156 C 691.035156 250.703125 688.167969 240.515625 681.546875 236.523438 C 674.925781 232.535156 667.066406 236.257812 663.980469 244.835938 L 590.222656 448.914062 C 587.144531 457.484375 590.015625 467.683594 596.636719 471.675781 " fill-opacity="1" fill-rule="nonzero"/><g clip-path="url(#clip-1)"><path fill="rgb(9.408569%, 8.628845%, 9.01947%)" d="M 361.066406 540.800781 C 361.066406 571.628906 336.066406 596.605469 305.222656 596.605469 C 274.386719 596.605469 249.386719 571.628906 249.386719 540.800781 C 249.386719 509.984375 274.386719 484.996094 305.222656 484.996094 C 336.066406 484.996094 361.066406 509.984375 361.066406 540.800781 " fill-opacity="1" fill-rule="nonzero"/></g><g clip-path="url(#clip-2)"><path fill="rgb(9.408569%, 8.628845%, 9.01947%)" d="M 668.449219 540.800781 C 668.449219 571.628906 643.457031 596.605469 612.613281 596.605469 C 581.777344 596.605469 556.777344 571.628906 556.777344 540.800781 C 556.777344 509.984375 581.777344 484.996094 612.613281 484.996094 C 643.457031 484.996094 668.449219 509.984375 668.449219 540.800781 " fill-opacity="1" fill-rule="nonzero"/></g></svg>